<svg width="16" height="16" viewBox="0 0 16 16" fill="none" xmlns="http://www.w3.org/2000/svg">
<g id="icon-wrapper" clip-path="url(#clip0_558_693)">
<path id="Union" d="M11.7417 10.3441C12.71 9.02279 13.1437 7.38459 12.956 5.75725C12.7683 4.12991 11.9731 2.63344 10.7294 1.56723C9.48579 0.501022 7.88543 -0.0562959 6.24851 0.00677721C4.6116 0.0698504 3.05886 0.748663 1.90095 1.90741C0.743029 3.06615 0.0653277 4.61938 0.00342583 6.25633C-0.058476 7.89329 0.499986 9.49326 1.56708 10.7361C2.63418 11.979 4.13122 12.7732 5.7587 12.9597C7.38617 13.1462 9.02406 12.7113 10.3447 11.7421H10.3437C10.3737 11.7821 10.4057 11.8201 10.4417 11.8571L14.2917 15.7071C14.4792 15.8947 14.7336 16.0002 14.9988 16.0003C15.2641 16.0004 15.5185 15.8951 15.7062 15.7076C15.8938 15.5201 15.9993 15.2657 15.9994 15.0005C15.9995 14.7352 15.8942 14.4807 15.7067 14.2931L11.8567 10.4431C11.8209 10.4069 11.7825 10.3735 11.7417 10.3431V10.3441ZM11.9997 6.5001C11.9997 7.22237 11.8574 7.93757 11.581 8.60486C11.3046 9.27215 10.8995 9.87847 10.3888 10.3892C9.87804 10.8999 9.27173 11.305 8.60444 11.5814C7.93715 11.8578 7.22195 12.0001 6.49968 12.0001C5.77741 12.0001 5.06221 11.8578 4.39492 11.5814C3.72763 11.305 3.12131 10.8999 2.61059 10.3892C2.09987 9.87847 1.69474 9.27215 1.41834 8.60486C1.14194 7.93757 0.999677 7.22237 0.999677 6.5001C0.999677 5.04141 1.57914 3.64246 2.61059 2.61101C3.64204 1.57956 5.04099 1.0001 6.49968 1.0001C7.95837 1.0001 9.35731 1.57956 10.3888 2.61101C11.4202 3.64246 11.9997 5.04141 11.9997 6.5001Z" fill="white"/>
</g>
<defs>
<clipPath id="clip0_558_693">
<rect width="16" height="16" fill="white" transform="translate(0 0.000976562)"/>
</clipPath>
</defs>
</svg>
